<?xml version="1.0" encoding="UTF-8" standalone="no"?>
<!-- Created with Inkscape (http://www.inkscape.org/) -->

<svg
   xmlns:dc="http://purl.org/dc/elements/1.1/"
   xmlns:cc="http://creativecommons.org/ns#"
   xmlns:rdf="http://www.w3.org/1999/02/22-rdf-syntax-ns#"
   xmlns:svg="http://www.w3.org/2000/svg"
   xmlns="http://www.w3.org/2000/svg"
   xmlns:sodipodi="http://sodipodi.sourceforge.net/DTD/sodipodi-0.dtd"
   xmlns:inkscape="http://www.inkscape.org/namespaces/inkscape"
   version="1.1"
   id="svg64"
   width="2880"
   height="1440"
   viewBox="0 0 2880 1440"
   sodipodi:docname="xenonca_full.svg"
   inkscape:version="0.92.4 (33fec40, 2019-01-16)">
  <metadata
     id="metadata70">
    <rdf:RDF>
      <cc:Work
         rdf:about="">
        <dc:format>image/svg+xml</dc:format>
        <dc:type
           rdf:resource="http://purl.org/dc/dcmitype/StillImage" />
        <dc:title></dc:title>
      </cc:Work>
    </rdf:RDF>
  </metadata>
  <defs
     id="defs68" />
  <sodipodi:namedview
     pagecolor="#ffffff"
     bordercolor="#666666"
     borderopacity="1"
     objecttolerance="10"
     gridtolerance="10"
     guidetolerance="10"
     inkscape:pageopacity="0"
     inkscape:pageshadow="2"
     inkscape:window-width="1366"
     inkscape:window-height="704"
     id="namedview66"
     showgrid="false"
     inkscape:zoom="0.18125"
     inkscape:cx="1612.9192"
     inkscape:cy="1834.081"
     inkscape:window-x="0"
     inkscape:window-y="27"
     inkscape:window-maximized="1"
     inkscape:current-layer="svg64" />
  <g
     id="g74"
     transform="translate(-1.3793109,1.3793104)">
    <path
       style="fill:#f7f7f7;stroke-width:1.33333337"
       d="M 0,720 V 0 h 1440 1440 v 720 720 H 1440 0 Z"
       id="path80"
       inkscape:connector-curvature="0" />
    <path
       style="fill:#11a6c3;stroke-width:1.33333337"
       d="m 96.155576,1437 c 1.899729,-3.6008 94.630294,-163.6778 280.099864,-483.52499 L 513.40904,716.95004 493.13841,682.14168 C 474.65572,650.40356 287.36948,333.52209 237.33599,249.33333 185.57899,162.24451 91.609255,3.1776324 91.025392,1.6666667 90.511799,0.33755115 132.87419,0.00896652 300.19068,0.04427241 L 510,0.08854481 535.91943,45.044272 C 666.33413,271.24092 717.51101,358.96436 719.3938,359.5418 c 0.70008,0.21471 13.33752,-20.44436 28.08321,-45.90904 C 823.11897,183.00481 926.27063,5.6397099 928.1366,2.9958604 l 2.12027,-3.0041396 210.21783,0.33747293 210.218,0.33747294 L 1288.4597,106 c -34.2281,57.93333 -129.334,218.83152 -211.3463,357.55152 C 995.10103,602.27152 928,716.57675 928,717.56315 c 0,4.13458 53.89889,97.62421 357.6616,620.37735 31.5144,54.2339 57.5977,99.3859 57.9629,100.3376 0.543,1.4147 -36.1442,1.6688 -201.0009,1.3928 L 940.95868,1439.3333 856.44487,1296 C 735.63821,1091.1149 722.89712,1070 720.07265,1070 c -0.99845,0 -50.47325,82.2595 -109.94401,182.7988 -59.47075,100.5393 -108.95211,183.7893 -109.95856,185 -1.6862,2.0283 -17.68707,2.2012 -203.71359,2.2012 H 94.572843 Z M 1330.6667,911.16765 c -11.9056,-1.50538 -32.1699,-6.22726 -44.6571,-10.40574 -30.6292,-10.24916 -55.2241,-25.63978 -78.7489,-49.27828 -28.8759,-29.01552 -43.8204,-56.06462 -52.7544,-95.48363 -2.7966,-12.33919 -3.173,-17.32161 -3.173,-42 0,-30.70749 1.3257,-40.11337 8.8261,-62.62319 19.6854,-59.07874 66.6883,-105.71824 125.4961,-124.52572 20.4129,-6.5283 31.0879,-8.33993 53.7122,-9.11536 40.7196,-1.39562 73.3158,6.48131 106.4948,25.73482 48.3072,28.03225 80.8276,76.301 92.9727,137.99618 2.3945,12.16419 3.0095,19.99323 3.0785,39.19994 0.079,21.83809 -0.1644,24.48042 -2.6962,29.33333 -2.287,4.38351 -3.8304,5.61104 -8.6667,6.89269 -4.2733,1.1325 -39.5051,1.58875 -128.7021,1.66667 -122.757,0.1072 -134.8349,0.52209 -139.0902,4.77737 -7.7169,7.71695 7.8436,31.24151 28.7496,43.46384 19.3168,11.29323 33.319,14.74042 59.8252,14.7283 33.5822,-0.0153 50.5859,-6.55134 73.0491,-28.07898 l 6.3824,-6.11656 45.5335,-0.41534 c 25.0433,-0.22844 46.9534,-0.0589 48.6893,0.37674 3.042,0.7635 3.1375,1.17051 2.6433,11.27363 -0.6345,12.97401 -4.017,20.40025 -17.5538,38.53857 -28.0852,37.63214 -66.8986,62.21816 -113.1727,71.68835 -9.3904,1.9218 -56.4665,3.60788 -66.2377,2.37237 z m 115.3125,-239.1339 c 1.5292,-2.47432 -5.7065,-19.97968 -11.7717,-28.47936 -8.2418,-11.54974 -17.4716,-19.55546 -29.1354,-25.27104 -16.5126,-8.09179 -24.0454,-9.52231 -50.4054,-9.57238 -27.0069,-0.0513 -36.5203,1.95359 -55.2579,11.6451 -18.9862,9.8201 -40.7421,35.12384 -40.7421,47.38612 0,2.21957 0.75,4.33822 1.6666,4.7081 3.2767,1.32215 184.823,0.91482 185.6459,-0.41654 z M 2160,911.24061 c -1.8333,-0.32029 -7.8333,-1.24256 -13.3333,-2.04949 -28.0118,-4.10968 -64.5802,-19.82651 -89.4746,-38.45537 -51.864,-38.81076 -82.5356,-101.80294 -79.4353,-163.14128 1.6453,-32.55223 8.1223,-57.57719 21.5636,-83.31514 10.3157,-19.75313 20.3761,-32.98852 38.318,-50.41137 29.9647,-29.09764 64.5288,-47.00037 102.6916,-53.18976 19.0783,-3.0942 57.7387,-2.72067 74.7939,0.72264 26.4481,5.33967 50.1881,14.92389 70.8761,28.61381 39.0855,25.8642 66.012,61.19367 80.6772,105.854 8.194,24.95363 9.876,35.86748 9.8836,64.13135 0.013,27.69017 -1.5643,37.74021 -9.4821,60.63087 -9.5076,27.487 -24.495,51.22565 -45.8332,72.59564 -27.3135,27.35402 -63.1196,46.79329 -100.9802,54.8223 -12.4157,2.63299 -51.5886,4.70768 -60.2653,3.1918 z m 38.3012,-91.2221 c 50.7784,-12.17379 85.9109,-59.80774 82.4308,-111.76227 -1.9193,-28.65135 -11.0623,-50.32831 -29.2076,-69.24743 -20.6233,-21.50277 -42.2484,-30.95752 -70.8577,-30.97976 -42.1924,-0.0328 -79.8783,25.04063 -97.4894,64.86232 -11.9882,27.1079 -11.4258,64.4691 1.377,91.44823 12.2206,25.75261 37.4112,47.27233 63.684,54.40368 15.2021,4.1264 35.9644,4.65527 50.0629,1.27523 z m -592.0979,81.48529 c -6.5312,-1.43568 -10.9293,-3.13265 -11.7033,-4.51556 -1.5579,-2.78389 -0.9547,-365.64516 0.6105,-367.21077 1.7231,-1.72363 77.3904,-2.31678 80.5396,-0.63135 1.7712,0.94791 2.9059,3.35803 3.45,7.32796 0.7956,5.80391 4.6519,15.52592 6.1584,15.52592 0.4206,0 6.1438,-3.66009 12.7183,-8.13355 18.8473,-12.82436 32.3153,-18.82989 54.0232,-24.08961 4.8141,-1.16645 15.8069,-1.75581 32,-1.71565 20.5869,0.0511 26.5411,0.53073 36,2.90006 37.2872,9.34004 63.2003,26.15706 81.0203,52.58047 15.8313,23.47444 22.3477,43.5274 26.3624,81.12495 2.5165,23.56638 2.6686,229.08469 0.1766,238.6562 -2.4277,9.32512 -4.5534,9.91861 -37.5593,10.48606 -23.1328,0.39772 -30.2873,0.0512 -41.1584,-1.99348 -10.6808,-2.0089 -13.3516,-2.98333 -14.1851,-5.1753 -0.5646,-1.48522 -1.3374,-50.38684 -1.7173,-108.67028 -0.6887,-105.64491 -1.1805,-117.30734 -5.7067,-135.3032 -7.6918,-30.58299 -25.985,-44.70211 -57.846,-44.64696 -38.1729,0.0661 -65.6993,21.72365 -74.7301,58.79702 -3.9819,16.3465 -5.2127,48.45246 -5.3865,140.5166 -0.1659,87.80179 -0.3766,90.52483 -7.2699,93.98954 -6.2856,3.15922 -61.6468,3.29137 -75.7967,0.18093 z m 829.13,0.44604 c -4.4,-1.06388 -9.3521,-2.24977 -11.0046,-2.63533 l -3.0047,-0.701 0.338,-184.30676 L 2422,530 l 40.9041,-0.35247 c 45.563,-0.3926 41.0794,-1.32868 43.1743,9.01379 1.0993,5.42687 4.6645,13.33868 6.0108,13.33868 0.5107,0 7.6699,-4.47329 15.9093,-9.94064 17.7388,-11.77081 30.7143,-17.45457 47.9882,-21.02065 10.8594,-2.2419 16.4129,-2.52975 38.68,-2.00492 22.3332,0.52638 27.8086,1.09073 38.8252,4.00169 32.6292,8.62185 59.223,27.42839 76.4489,54.06284 14.1527,21.88252 20.2733,41.57324 24.1113,77.56835 2.5139,23.57569 2.6636,229.09337 0.1739,238.6562 -2.4471,9.39946 -4.4221,9.93158 -38.8239,10.45978 -23.5098,0.36098 -31.1133,0.0225 -38.6666,-1.72104 -5.1712,-1.1937 -10.7522,-2.45733 -12.4022,-2.80806 l -3,-0.63768 -0.049,-86.9746 c -0.07,-121.7742 -1.6009,-147.04995 -10.2387,-168.9746 -9.1549,-23.23716 -23.8769,-33.1358 -51.0453,-34.32112 -40.2775,-1.75726 -69.2509,19.77532 -78.6769,58.47118 -3.9819,16.3465 -5.2127,48.45246 -5.3866,140.5166 -0.1658,87.80179 -0.3765,90.52483 -7.2698,93.98954 -5.7916,2.91094 -61.9032,3.39069 -73.3334,0.62697 z"
       id="path78"
       inkscape:connector-curvature="0" />
    <path
       style="fill:#1a2e9f;stroke-width:1.33333337"
       d="m 97.181451,1436.3333 c 1.42704,-2.0166 32.432579,-55.2666 68.901199,-118.3333 36.46863,-63.0667 69.28387,-119.7667 72.92276,-126 3.6389,-6.2333 8.87438,-15.2333 11.63442,-20 26.0289,-44.9527 89.8018,-154.7513 232.48592,-400.27376 17.3475,-29.85056 31.54092,-55.46851 31.54092,-56.92877 0,-1.46026 4.4434,-10.03707 9.87424,-19.05958 C 538.85267,671.96105 598.63935,569.66107 662.31208,460 c 30.44447,-52.43333 56.43037,-96.53333 57.74645,-98 1.3161,-1.46667 6.85099,-10.46667 12.29979,-20 5.44879,-9.53333 51.40621,-88.87484 102.1276,-176.31447 C 885.20732,78.245911 927.39396,5.1959101 928.23401,3.3522001 L 929.76137,0 h 210.49253 210.4926 l -2.6117,3.6666667 c -1.4365,2.0166666 -20.1292,33.3666663 -41.5395,69.6666663 -21.4102,36.299997 -47.4502,80.399997 -57.8666,97.999997 -10.4164,17.6 -29.0247,49.1 -41.3517,70 -12.327,20.9 -27.9521,47.3 -34.7225,58.66667 -12.0903,20.29833 -105.9103,178.66415 -125.9891,212.66667 C 1041.0358,522.2 1011.8831,571.4 981.8816,622 c -52.59297,88.70223 -54.55473,92.25428 -54.72852,99.09368 -0.16945,6.6688 -1.72216,9.74352 -25.92291,51.33333 -14.15846,24.33182 -32.1419,55.03966 -39.96321,68.23966 -13.14872,22.19109 -39.78203,68.18558 -65.62613,113.33333 -5.87699,10.26667 -15.20564,26.46667 -20.73035,36 -5.52469,9.53333 -16.75264,29.0333 -24.95099,43.3333 -8.19836,14.3 -16.71098,28.838 -18.91697,32.3067 -3.94895,6.2092 -4.04779,6.2658 -6.40003,3.6666 -1.31401,-1.4519 -3.09328,-2.6399 -3.95392,-2.6399 -0.86062,0 -51.2448,84 -111.96481,186.6666 L 498.32372,1440 H 296.45528 94.586833 Z M 1334,907.95847 c -77.0678,-5.59782 -145.8953,-56.36986 -170.7728,-125.9742 -9.0459,-25.30915 -10.4141,-34.00127 -10.4912,-66.65094 -0.076,-32.19556 1.1447,-41.11158 8.7567,-63.95652 9.9123,-29.74804 24.7763,-53.75269 47.1205,-76.097 27.9148,-27.91492 59.8027,-45.08984 99.3868,-53.52998 16.315,-3.47868 62.5395,-3.43624 78.5965,0.0721 17.7039,3.86821 30.1372,8.28503 47.4035,16.83967 52.1273,25.82657 89.0665,76.08916 101.5741,138.21032 3.4802,17.28469 3.5232,68.89526 0.061,74.18313 l -2.364,3.61155 h -60.4164 c -33.2291,0 -93.887,0.39908 -134.7954,0.88684 l -74.3788,0.88684 -3.8407,3.23168 c -4.4975,3.7844 -4.7423,6.87865 -1.1675,14.75576 6.0301,13.28774 21.3764,28.1655 37.3927,36.25126 20.3677,10.28254 40.6161,13.7635 68.1773,11.72054 26.078,-1.93303 39.0285,-7.9073 60.6952,-27.9997 l 6.9382,-6.43414 47.0618,0.35046 47.0617,0.35046 -0.3128,6.2283 c -1.3528,26.9405 -41.1945,72.81088 -81.148,93.42682 -31.2405,16.12012 -68.3048,22.70437 -110.5392,19.63668 z m 113.5363,-235.33991 c 1.2836,-3.34489 -4.6516,-17.88111 -11.7991,-28.89768 -14.2937,-22.03152 -38.3732,-35.35325 -69.5793,-38.49396 -49.1399,-4.94561 -89.8204,14.43037 -108.3297,51.59711 -5.6129,11.27068 -5.5698,15.45504 0.1718,16.6763 2.2,0.46796 45.5688,0.92182 96.3752,1.00859 81.9411,0.13993 92.4639,-0.0736 93.1611,-1.89036 z m 155.814,226.42021 c -2.924,-0.31394 -6.074,-1.19957 -7,-1.96805 -1.3402,-1.11224 -1.6836,-36.95185 -1.6836,-175.70505 0,-95.86931 0.3802,-177.94587 0.845,-182.39235 l 0.845,-8.08453 12.155,-0.8451 c 6.6852,-0.4648 24.755,-0.36477 40.155,0.22228 l 28,1.06736 0.7889,7.33334 c 1.3103,12.17896 2.5812,17.33376 4.2715,17.32521 0.8834,-0.004 5.5062,-2.74477 10.2729,-6.08957 23.0696,-16.18806 38.512,-23.64971 56.7319,-27.41226 11.4669,-2.36801 16.6166,-2.65501 37.9348,-2.1141 21.2417,0.53897 26.5805,1.12673 38.45,4.23309 37.9536,9.93275 65.4465,31.55541 82.1753,64.62929 7.058,13.9543 10.2572,24.70238 14.3153,48.095 2.7798,16.02322 2.9112,21.0164 3.4035,129.33334 0.4964,109.22384 0.1819,126.57793 -2.3696,130.70932 -1.6409,2.65722 -58.8453,3.62753 -75.3916,1.2788 l -11.2496,-1.5969 -0.029,-86.19561 c -0.041,-122.07212 -1.4758,-146.11865 -10.1007,-169.38749 -8.3216,-22.45028 -26.6847,-35.41387 -52.5404,-37.09131 -36.8164,-2.38853 -67.1576,17.02176 -79.4216,50.80868 -6.9031,19.01772 -7.5273,29.37879 -8.4168,139.69823 -0.4533,56.22305 -1.3233,102.72305 -1.9333,103.33333 -1.1367,1.13721 -70.6296,1.84339 -80.2074,0.81505 z m 658.7164,-10.96922 c 1.5716,-1.56806 11.2666,-5.68232 11.2666,-4.7812 0,0.7651 -10.0853,6.04498 -11.5469,6.04498 -0.5425,0 -0.4164,-0.5687 0.2803,-1.26378 z m -187.0359,-10.82402 c -20.1536,-10.41924 -47.6004,-35.82273 -61.8872,-57.27998 -20.9845,-31.51658 -31.3455,-63.3782 -32.7356,-100.668 -0.8505,-22.81743 1.1803,-38.7159 7.8023,-61.08004 4.2481,-14.34686 15.3132,-37.53255 24.7428,-51.84579 11.658,-17.69561 40.8238,-45.49877 57.0469,-54.38155 2.9333,-1.6061 7.146,-4.02498 9.3613,-5.37526 l 4.0282,-2.45506 0.2681,8.58675 c 0.148,4.74088 -0.3011,8.58673 -1.0025,8.58673 -1.3718,0 -0.659,8.9794 1.4608,18.40174 0.7097,3.15428 0.8361,6.45428 0.2809,7.33333 -1.5149,2.3988 -1.5305,35.41624 -0.02,42.01817 0.9389,4.10367 0.8825,6.18719 -0.1969,7.26667 -0.8324,0.83239 -1.5135,4.21 -1.5135,7.5058 v 5.99237 l 3,-4.03173 c 6.2317,-8.37491 24.7063,-24.11303 35,-29.81581 2.9333,-1.6251 5.9333,-3.41691 6.6667,-3.98182 1.873,-1.44292 24.7836,-8.02272 27.9333,-8.02236 3.9165,4.7e-4 0.8891,1.98755 -5.9333,3.89452 -7.1139,1.98843 -22.3919,9.54284 -30.3068,14.98558 -17.0991,11.75828 -33.9972,33.31576 -41.5423,52.99685 -6.3999,16.69357 -8.5807,30.40589 -7.7593,48.79003 0.792,17.73024 3.2298,27.7262 10.4618,42.89713 2.5075,5.26009 4.0912,9.27468 3.5195,8.92131 -0.9499,-0.58699 -1.8281,16.24468 -1.4359,27.51489 0.6207,17.82981 0.49,53.6044 -0.2038,55.79037 -0.463,1.45854 -0.3462,2.95816 0.2596,3.33252 0.9698,0.59943 1.0166,16.85107 0.051,17.48044 -0.207,0.13486 -3.5126,-1.37614 -7.3457,-3.3578 z M 2278,880.31001 c 0.7333,-0.7304 6.7291,-5.13193 13.324,-9.78118 14.2804,-10.06756 30.1372,-24.93258 40.49,-37.95779 4.1356,-5.20316 8.9157,-11.2102 10.6225,-13.34899 l 3.1032,-3.88872 -2.3189,4 c -8.4673,14.6054 -27.5355,35.05018 -44.8661,48.10519 -11.4403,8.61783 -24.1592,16.66081 -20.3547,12.87149 z M 2523.378,644 c 1.3651,-5.03612 9.9785,-17.13077 15.6829,-22.02123 4.8128,-4.12612 19.4416,-12.64544 21.7139,-12.64544 0.5876,0 -2.4964,2.13582 -6.8532,4.74627 -10.1324,6.07084 -19.5171,15.12236 -26.1833,25.25373 -2.925,4.44524 -4.8624,6.51886 -4.3603,4.66667 z m -362.2947,-40.91081 c 0.9626,-0.38516 2.1126,-0.3378 2.5556,0.1052 0.4431,0.44305 -0.3445,0.75818 -1.75,0.70029 -1.5533,-0.064 -1.8692,-0.37992 -0.8056,-0.80555 z"
       id="path76"
       inkscape:connector-curvature="0" />
  </g>
</svg>
