<?xml version="1.0" encoding="UTF-8" standalone="no"?>
<!-- Created with Inkscape (http://www.inkscape.org/) -->

<svg
   xmlns:dc="http://purl.org/dc/elements/1.1/"
   xmlns:cc="http://creativecommons.org/ns#"
   xmlns:rdf="http://www.w3.org/1999/02/22-rdf-syntax-ns#"
   xmlns:svg="http://www.w3.org/2000/svg"
   xmlns="http://www.w3.org/2000/svg"
   xmlns:sodipodi="http://sodipodi.sourceforge.net/DTD/sodipodi-0.dtd"
   xmlns:inkscape="http://www.inkscape.org/namespaces/inkscape"
   version="1.1"
   id="svg3767"
   width="1440"
   height="1440"
   viewBox="0 0 1440 1440"
   sodipodi:docname="xenonca.svg"
   inkscape:version="0.92.4 (33fec40, 2019-01-16)">
  <metadata
     id="metadata3773">
    <rdf:RDF>
      <cc:Work
         rdf:about="">
        <dc:format>image/svg+xml</dc:format>
        <dc:type
           rdf:resource="http://purl.org/dc/dcmitype/StillImage" />
        <dc:title></dc:title>
      </cc:Work>
    </rdf:RDF>
  </metadata>
  <defs
     id="defs3771" />
  <sodipodi:namedview
     pagecolor="#ffffff"
     bordercolor="#666666"
     borderopacity="1"
     objecttolerance="10"
     gridtolerance="10"
     guidetolerance="10"
     inkscape:pageopacity="0"
     inkscape:pageshadow="2"
     inkscape:window-width="1366"
     inkscape:window-height="704"
     id="namedview3769"
     showgrid="false"
     inkscape:zoom="0.3625"
     inkscape:cx="584.73479"
     inkscape:cy="1101.3224"
     inkscape:window-x="0"
     inkscape:window-y="27"
     inkscape:window-maximized="1"
     inkscape:current-layer="svg3767" />
  <g
     id="g3815"
     transform="translate(15.605115)">
    <path
       style="fill:#3ca6be;stroke-width:1.33333337"
       d="m 96.823383,1435.6667 c 1.223857,-2.3834 94.636707,-163.6334 207.584127,-358.3334 112.9474,-194.69997 205.96746,-355.58227 206.71124,-357.51619 1.14237,-2.97034 0.7151,-4.52284 -2.75204,-10 -2.25739,-3.56608 -7.08322,-11.88378 -10.72403,-18.48378 C 492.52749,682.06065 103.33305,23.309 91.758936,4.3333333 L 89.115841,0 H 299.66425 510.21267 l 94.46792,163 c 81.20389,140.11355 104.70796,179.8896 114.39396,193.58948 1.71657,2.42791 2.1193,2.09515 6.45476,-5.33333 2.54317,-4.35755 48.971,-84.42282 103.17293,-177.92282 C 882.90417,79.833333 927.97684,2.5833333 928.86371,1.6666667 930.14027,0.34720479 974.25097,0 1140.6057,0 h 210.1295 l -2.1071,4.0744429 C 1347.4693,6.3153865 1252.5624,166.96539 1137.7239,361.07444 1022.8853,555.18349 928.67343,715.21756 928.36408,716.70569 c -0.34953,1.68151 3.33499,9.50452 9.73368,20.66667 12.53312,21.86331 401.15674,692.18674 404.83984,698.29434 l 2.6132,4.3333 -202.4421,-0.039 -202.44203,-0.039 -99.33334,-168.2033 C 786.7,1179.2069 739.25088,1099.2744 735.89084,1094.091 c -3.36004,-5.1834 -8.15185,-12.8771 -10.64847,-17.0971 -2.49662,-4.22 -5.04448,-7.5043 -5.6619,-7.2985 -0.61743,0.2058 -49.37636,81.9585 -108.35319,181.6727 -58.97681,99.7142 -108.4478,182.9486 -109.93552,184.9652 L 498.58684,1440 H 296.59251 94.598187 Z"
       id="path3821"
       inkscape:connector-curvature="0" />
    <path
       style="fill:#296f8b;stroke-width:1.33333337"
       d="m 96.29764,1437.6667 c 4.54333,-5.1858 417.03551,-718.13047 417.03315,-720.79325 -10e-4,-1.5804 -3.05188,-7.94354 -6.77883,-14.14032 -4.78525,-7.9564 -6.60595,-12.2658 -6.19653,-14.66666 0.66025,-3.87188 201.1442,-349.69998 203.0616,-350.27447 1.01821,-0.30507 6.61658,8.02997 14.02084,20.87467 0.8929,1.54898 1.6863,1.66738 3.51836,0.52502 C 722.99036,357.92332 923.73781,13.736967 928.31699,3.6666667 L 929.98429,0 h 210.31371 210.3137 l -3.8784,5.6666667 C 1336.6901,20.340812 927.3852,714.44615 926.91812,717.59556 c -0.37719,2.54329 1.49947,7.14767 6.41248,15.733 3.84533,6.71961 6.65681,13.14937 6.29847,14.40444 -1.20471,4.21948 -201.6758,341.9607 -202.99091,341.9864 -0.71765,0.014 -4.22809,-4.867 -7.80099,-10.8469 -3.90693,-6.539 -7.36126,-10.8657 -8.66666,-10.8555 -1.46202,0.012 -37.20586,59.2503 -109.50384,181.4827 -59.03334,99.806 -108.39767,183.4984 -109.69852,185.983 L 498.60296,1440 h -202.1748 c -192.4373,0 -202.076333,-0.112 -200.13052,-2.3333 z"
       id="path3819"
       inkscape:connector-curvature="0" />
    <path
       style="fill:#00307a;stroke-width:1.33333337"
       d="m 96.854812,1437.6396 c 3.183808,-2.572 416.941718,-715.32453 418.229438,-720.45523 1.09514,-4.36334 201.6771,-350.0825 206.10299,-355.23509 5.15275,-5.99879 208.87923,-358.0295261 208.42097,-360.142648 -0.32833,-1.51409264 33.78392,-1.80183127 210.66669,-1.7769842 200.2003,0.02812252 210.91,0.14816411 208.1739,2.3333333 -3.086,2.4645141 -421.17964,708.6075289 -423.64736,715.5228889 -2.07643,5.81885 -201.66861,343.39963 -205.42577,347.44743 -3.78251,4.0751 -219.52184,368.7215 -219.97428,371.8044 -0.29734,2.026 -15.96882,2.2192 -202.8618,2.5019 -192.17467,0.2907 -202.393495,0.1884 -199.684778,-2 z"
       id="path3817"
       inkscape:connector-curvature="0" />
  </g>
</svg>
